<svg width="25" height="25" viewBox="0 0 25 25" fill="none" xmlns="http://www.w3.org/2000/svg">
<path d="M13.1131 18.157H4.03495C3.49991 18.157 2.98678 17.9444 2.60845 17.5661C2.23012 17.1878 2.01758 16.6746 2.01758 16.1396V8.07011C2.01758 7.53507 2.23012 7.02194 2.60845 6.64361C2.98678 6.26528 3.49991 6.05273 4.03495 6.05273H20.1739C20.709 6.05273 21.2221 6.26528 21.6004 6.64361C21.9788 7.02194 22.1913 7.53507 22.1913 8.07011V13.1135" stroke="#DC2626" stroke-width="1.5" stroke-linecap="round" stroke-linejoin="round"/>
<path d="M17.1484 17.1484L22.1919 22.1919" stroke="#DC2626" stroke-width="1.5" stroke-linecap="round" stroke-linejoin="round"/>
<path d="M18.1562 12.1035H18.1663" stroke="#DC2626" stroke-width="1.5" stroke-linecap="round" stroke-linejoin="round"/>
<path d="M22.1919 17.1484L17.1484 22.1919" stroke="#DC2626" stroke-width="1.5" stroke-linecap="round" stroke-linejoin="round"/>
<path d="M6.05273 12.1035H6.06273" stroke="#DC2626" stroke-width="1.5" stroke-linecap="round" stroke-linejoin="round"/>
<path d="M12.1033 14.1207C13.2175 14.1207 14.1207 13.2175 14.1207 12.1033C14.1207 10.9891 13.2175 10.0859 12.1033 10.0859C10.9891 10.0859 10.0859 10.9891 10.0859 12.1033C10.0859 13.2175 10.9891 14.1207 12.1033 14.1207Z" stroke="#DC2626" stroke-width="1.5" stroke-linecap="round" stroke-linejoin="round"/>
</svg>
