<svg width="36" height="36" viewBox="0 0 36 36" fill="none" xmlns="http://www.w3.org/2000/svg">
<rect width="36" height="36" rx="18" fill="#FAFAFA"/>
<path d="M16.8457 24C16.9627 24.2027 17.131 24.371 17.3337 24.488C17.5364 24.605 17.7663 24.6666 18.0004 24.6666C18.2344 24.6666 18.4643 24.605 18.667 24.488C18.8697 24.371 19.038 24.2027 19.155 24" stroke="#171717" stroke-linecap="round" stroke-linejoin="round"/>
<path d="M12.1742 20.217C12.0871 20.3125 12.0296 20.4312 12.0087 20.5587C11.9879 20.6862 12.0045 20.817 12.0567 20.9353C12.1088 21.0535 12.1941 21.154 12.3023 21.2247C12.4106 21.2953 12.537 21.3329 12.6662 21.333H23.3328C23.462 21.3331 23.5885 21.2956 23.6968 21.2251C23.805 21.1546 23.8905 21.0542 23.9428 20.936C23.995 20.8179 24.0118 20.6871 23.9911 20.5595C23.9704 20.432 23.9131 20.3132 23.8262 20.2177C22.9395 19.3037 21.9995 18.3323 21.9995 15.333C21.9995 14.2721 21.5781 13.2547 20.8279 12.5046C20.0778 11.7544 19.0604 11.333 17.9995 11.333C16.9386 11.333 15.9212 11.7544 15.1711 12.5046C14.4209 13.2547 13.9995 14.2721 13.9995 15.333C13.9995 18.3323 13.0588 19.3037 12.1742 20.217Z" stroke="#171717" stroke-linecap="round" stroke-linejoin="round"/>
</svg>
