<svg width="25" height="25" viewBox="0 0 25 25" fill="none" xmlns="http://www.w3.org/2000/svg">
<path d="M12.1035 6.05273V12.1049L16.1383 14.1222" stroke="#525252" stroke-width="1.5" stroke-linecap="round" stroke-linejoin="round"/>
<path d="M16.1385 21.3439C14.3255 22.1359 12.3196 22.3773 10.3704 22.0379C8.42121 21.6986 6.61488 20.7935 5.1762 19.4353C3.73753 18.0771 2.73004 16.3258 2.27913 14.3994C1.82822 12.473 1.9538 10.4565 2.64024 8.60088C3.32669 6.74528 4.54368 5.13253 6.13976 3.96335C7.73583 2.79417 9.6405 2.12019 11.6167 2.02529C13.5929 1.93039 15.5534 2.41876 17.2542 3.42962C18.955 4.44049 20.3209 5.9292 21.182 7.71049" stroke="#525252" stroke-width="1.5" stroke-linecap="round" stroke-linejoin="round"/>
<path d="M20.1738 11.5996V17.6517" stroke="#525252" stroke-width="1.5" stroke-linecap="round" stroke-linejoin="round"/>
<path d="M20.1738 21.6875H20.1838" stroke="#525252" stroke-width="1.5" stroke-linecap="round" stroke-linejoin="round"/>
</svg>
